<?xml version="1.0" encoding="UTF-8" standalone="no"?>
<svg
   viewBox="0 0 59.996994 26.997368"
   version="1.1"
   id="svg2"
   sodipodi:docname="3490846_bicycle_romantic_sport_tandem_transport_icon.svg"
   width="59.996994"
   height="26.997368"
   inkscape:export-filename="3490846_bicycle_romantic_sport_tandem_transport_icon2.svg"
   inkscape:export-xdpi="96"
   inkscape:export-ydpi="96"
   xmlns:inkscape="http://www.inkscape.org/namespaces/inkscape"
   xmlns:sodipodi="http://sodipodi.sourceforge.net/DTD/sodipodi-0.dtd"
   xmlns="http://www.w3.org/2000/svg"
   xmlns:svg="http://www.w3.org/2000/svg">
  <sodipodi:namedview
     id="namedview2"
     pagecolor="#ffffff"
     bordercolor="#666666"
     borderopacity="1.0"
     inkscape:showpageshadow="2"
     inkscape:pageopacity="0.0"
     inkscape:pagecheckerboard="0"
     inkscape:deskcolor="#d1d1d1" />
  <defs
     id="defs2">
    <linearGradient
       gradientUnits="userSpaceOnUse"
       id="linear-gradient"
       x1="13.569"
       x2="48.44083"
       y1="51.877998"
       y2="15.181465">
      <stop
         offset="0"
         stop-color="#41dfd0"
         id="stop1"
         style="stop-color:#ff9b9b;stop-opacity:1;" />
      <stop
         offset="1"
         stop-color="#ee83ef"
         id="stop2"
         style="stop-color:#755eff;stop-opacity:1;" />
    </linearGradient>
  </defs>
  <title
     id="title2" />
  <g
     id="gradient"
     transform="translate(-2.0053697,-17.999999)">
    <path
       d="m 54,29 a 7.953,7.953 0 0 0 -2.651,0.461 L 50.962,28.688 50.052,23.226 51.535,21 H 55 a 1,1 0 0 0 0,-2 h -4 a 1,1 0 0 0 -0.832,0.445 L 48.279,22.279 42.7,26 H 36.1 L 35.492,23.721 37.87,23.245 A 2.648,2.648 0 0 0 37.352,18 H 29 a 1,1 0 0 0 -0.895,1.447 l 0.66,1.32 a 5.811,5.811 0 0 0 4.724,3.2 L 34.032,26 H 18.959 l -1.3,-2.312 2.212,-0.443 A 2.648,2.648 0 0 0 19.352,18 H 11 a 1,1 0 0 0 -0.895,1.447 l 0.66,1.32 a 5.81,5.81 0 0 0 4.757,3.2 l 1.5,2.659 -2.848,3.56 A 7.994,7.994 0 1 0 17.931,38 h 2.211 a 3.981,3.981 0 0 0 7.716,0 h 7.326 a 2.956,2.956 0 0 0 0.255,0.539 L 34.465,40 H 32 a 1,1 0 0 0 0,2 h 3.535 l 1.458,-2.187 A 2.955,2.955 0 0 0 38,40 3,3 0 0 0 41,37 2.957,2.957 0 0 0 40.7,35.713 l 0.009,-0.006 8.055,-8.055 0.252,1.512 a 1,1 0 0 0 0.091,0.283 l 0.453,0.905 A 7.994,7.994 0 1 0 54,29 Z M 30.62,20 h 6.732 a 0.648,0.648 0 0 1 0.127,1.284 v 0 L 33.906,22 A 3.829,3.829 0 0 1 30.62,20 Z M 38.953,28 36.92,29.07 36.635,28 Z m -4.388,0 0.54,2.025 -8.157,4.294 A 3.865,3.865 0 0 0 22.98,33.148 L 20.084,28 Z m 0.619,8 h -7.137 l 7.587,-3.993 0.672,2.521 A 3,3 0 0 0 35.184,36 Z M 12.62,20 h 6.732 a 0.648,0.648 0 0 1 0.127,1.284 v 0 L 15.906,22 A 3.829,3.829 0 0 1 12.62,20 Z m 8.614,14.122 A 3.993,3.993 0 0 0 20.142,36 h -2.211 a 7.979,7.979 0 0 0 -2.2,-4.567 l 2.341,-2.927 z M 12.816,36 a 3.016,3.016 0 0 0 -0.274,-0.576 l 1.929,-2.412 A 5.982,5.982 0 0 1 15.91,36 Z M 11,37 a 1,1 0 1 1 -1,-1 1,1 0 0 1 1,1 z m -1,6 a 6,6 0 1 1 2.912,-11.242 l -1.935,2.419 A 2.962,2.962 0 0 0 10,34 3,3 0 1 0 12.816,38 H 15.91 A 6.006,6.006 0 0 1 10,43 Z m 14,-4 a 2,2 0 1 1 2,-2 2,2 0 0 1 -2,2 z m 14,-1 c -0.006,0 -0.012,0 -0.018,0 A 0.938,0.938 0 0 0 37,37.018 C 37,37.012 37,37.006 37,37 a 1,1 0 1 1 1,1 z m 1.293,-3.707 -0.006,0.009 a 2.962,2.962 0 0 0 -1.046,-0.278 l -0.793,-2.972 6.018,-3.167 c 0.012,-0.007 0.019,-0.019 0.031,-0.026 0.012,-0.007 0.04,-0.015 0.058,-0.027 l 4.706,-3.138 0.088,0.543 z M 54,43 A 5.992,5.992 0 0 1 50.464,32.164 l 1.38,2.759 A 2.994,2.994 0 1 0 54,34 2.9,2.9 0 0 0 53.637,34.037 L 52.249,31.262 A 6,6 0 1 1 54,43 Z m 0,-7 a 1,1 0 1 1 -1,1 1,1 0 0 1 1,-1 z"
       style="fill:url(#linear-gradient)"
       id="path2" />
  </g>
</svg>
